<?xml version="1.0" encoding="UTF-8" standalone="no"?>
<svg
   xmlns:dc="http://purl.org/dc/elements/1.1/"
   xmlns:cc="http://creativecommons.org/ns#"
   xmlns:rdf="http://www.w3.org/1999/02/22-rdf-syntax-ns#"
   xmlns:svg="http://www.w3.org/2000/svg"
   xmlns="http://www.w3.org/2000/svg"
   xmlns:sodipodi="http://sodipodi.sourceforge.net/DTD/sodipodi-0.dtd"
   xmlns:inkscape="http://www.inkscape.org/namespaces/inkscape"
   version="1.1"
   id="svg2"
   xml:space="preserve"
   width="240.48"
   height="250"
   viewBox="0 0 240.48 250"
   sodipodi:docname="GitHub-Mark.ai"><metadata
     id="metadata8"><rdf:RDF><cc:Work
         rdf:about=""><dc:format>image/svg+xml</dc:format><dc:type
           rdf:resource="http://purl.org/dc/dcmitype/StillImage" /></cc:Work></rdf:RDF></metadata><defs
     id="defs6"><clipPath
       clipPathUnits="userSpaceOnUse"
       id="clipPath18"><path
         d="M 0,187.5 H 180.36 V 0 H 0 Z"
         id="path16" /></clipPath></defs><sodipodi:namedview
     pagecolor="#ffffff"
     bordercolor="#666666"
     borderopacity="1"
     objecttolerance="10"
     gridtolerance="10"
     guidetolerance="10"
     inkscape:pageopacity="0"
     inkscape:pageshadow="2"
     inkscape:window-width="640"
     inkscape:window-height="480"
     id="namedview4" /><g
     id="g10"
     inkscape:groupmode="layer"
     inkscape:label="GitHub-Mark"
     transform="matrix(1.3333333,0,0,-1.3333333,0,250)"><g
       id="g12"><g
         id="g14"
         clip-path="url(#clipPath18)"><g
           id="g20"
           transform="translate(90.1807,178.6562)"><path
             d="m 0,0 c -48.074,0 -87.057,-38.975 -87.057,-87.059 0,-38.461 24.944,-71.094 59.536,-82.605 4.35,-0.806 5.948,1.89 5.948,4.187 0,2.076 -0.081,8.934 -0.118,16.21 -24.22,-5.269 -29.331,10.272 -29.331,10.272 -3.959,10.06 -9.666,12.737 -9.666,12.737 -7.899,5.404 0.595,5.291 0.595,5.291 8.742,-0.614 13.346,-8.97 13.346,-8.97 7.765,-13.31 20.366,-9.461 25.335,-7.237 0.78,5.626 3.035,9.466 5.525,11.641 -19.336,2.201 -39.664,9.666 -39.664,43.022 0,9.507 3.402,17.273 8.97,23.367 -0.901,2.195 -3.883,11.05 0.844,23.041 0,0 7.31,2.339 23.946,-8.925 6.946,1.93 14.393,2.897 21.791,2.931 7.398,-0.034 14.852,-1.001 21.81,-2.931 16.616,11.264 23.916,8.925 23.916,8.925 4.738,-11.991 1.757,-20.846 0.855,-23.041 5.58,-6.094 8.958,-13.86 8.958,-23.367 0,-33.435 -20.365,-40.799 -39.751,-42.952 3.123,-2.703 5.904,-8 5.904,-16.123 0,-11.648 -0.099,-21.022 -0.099,-23.891 0,-2.317 1.566,-5.031 5.977,-4.175 34.574,11.524 59.487,44.144 59.487,82.593 C 87.057,-38.975 48.079,0 0,0"
             style="fill:#ffffff;fill-opacity:1;fill-rule:evenodd;stroke:none"
             id="path22" /></g><g
           id="g24"
           transform="translate(36.0977,53.6631)"><path
             d="m 0,0 c -0.192,-0.434 -0.873,-0.563 -1.493,-0.267 -0.633,0.284 -0.986,0.875 -0.78,1.308 0.186,0.446 0.867,0.569 1.498,0.271 C -0.143,1.027 0.218,0.434 0,0"
             style="fill:#ffffff;fill-opacity:1;fill-rule:nonzero;stroke:none"
             id="path26" /></g><g
           id="g28"
           transform="translate(39.624,49.7295)"><path
             d="M 0,0 C -0.415,-0.386 -1.228,-0.206 -1.778,0.403 -2.349,1.007 -2.455,1.822 -2.033,2.211 -1.605,2.596 -0.818,2.417 -0.248,1.807 0.322,1.194 0.433,0.389 0,0"
             style="fill:#ffffff;fill-opacity:1;fill-rule:nonzero;stroke:none"
             id="path30" /></g><g
           id="g32"
           transform="translate(43.0557,44.7158)"><path
             d="M 0,0 C -0.532,-0.374 -1.406,-0.023 -1.945,0.751 -2.479,1.524 -2.479,2.454 -1.933,2.826 -1.394,3.197 -0.532,2.862 0.014,2.094 0.544,1.31 0.544,0.379 0,0"
             style="fill:#ffffff;fill-opacity:1;fill-rule:nonzero;stroke:none"
             id="path34" /></g><g
           id="g36"
           transform="translate(47.7588,39.8711)"><path
             d="M 0,0 C -0.478,-0.525 -1.494,-0.385 -2.237,0.333 -3,1.034 -3.21,2.031 -2.733,2.558 -2.249,3.085 -1.226,2.938 -0.478,2.226 0.278,1.524 0.509,0.521 0,0"
             style="fill:#ffffff;fill-opacity:1;fill-rule:nonzero;stroke:none"
             id="path38" /></g><g
           id="g40"
           transform="translate(54.2461,37.0586)"><path
             d="m 0,0 c -0.212,-0.681 -1.19,-0.992 -2.177,-0.701 -0.984,0.298 -1.628,1.096 -1.428,1.784 0.203,0.689 1.188,1.01 2.18,0.7 C -0.442,1.487 0.204,0.693 0,0"
             style="fill:#ffffff;fill-opacity:1;fill-rule:nonzero;stroke:none"
             id="path42" /></g><g
           id="g44"
           transform="translate(61.3701,36.5381)"><path
             d="m 0,0 c 0.023,-0.718 -0.812,-1.315 -1.847,-1.327 -1.041,-0.026 -1.884,0.558 -1.894,1.265 0,0.723 0.817,1.312 1.858,1.332 C -0.849,1.29 0,0.712 0,0"
             style="fill:#ffffff;fill-opacity:1;fill-rule:nonzero;stroke:none"
             id="path46" /></g><g
           id="g48"
           transform="translate(68.001,37.665)"><path
             d="m 0,0 c 0.124,-0.698 -0.596,-1.419 -1.624,-1.611 -1.011,-0.186 -1.945,0.248 -2.074,0.943 -0.126,0.718 0.606,1.436 1.615,1.622 C -1.053,1.135 -0.131,0.712 0,0"
             style="fill:#ffffff;fill-opacity:1;fill-rule:nonzero;stroke:none"
             id="path50" /></g></g></g></g></svg>
